<?xml version="1.0" encoding="utf-8" standalone="no"?>
<!DOCTYPE svg PUBLIC "-//W3C//DTD SVG 1.1//EN"
  "http://www.w3.org/Graphics/SVG/1.1/DTD/svg11.dtd">
<svg xmlns:xlink="http://www.w3.org/1999/xlink" width="864pt" height="432pt" viewBox="0 0 864 432" xmlns="http://www.w3.org/2000/svg" version="1.1">
 <metadata>
  <rdf:RDF xmlns:dc="http://purl.org/dc/elements/1.1/" xmlns:cc="http://creativecommons.org/ns#" xmlns:rdf="http://www.w3.org/1999/02/22-rdf-syntax-ns#">
   <cc:Work>
    <dc:type rdf:resource="http://purl.org/dc/dcmitype/StillImage"/>
    <dc:date>2024-11-18T01:06:16.120360</dc:date>
    <dc:format>image/svg+xml</dc:format>
    <dc:creator>
     <cc:Agent>
      <dc:title>Matplotlib v3.7.5, https://matplotlib.org/</dc:title>
     </cc:Agent>
    </dc:creator>
   </cc:Work>
  </rdf:RDF>
 </metadata>
 <defs>
  <style type="text/css">*{stroke-linejoin: round; stroke-linecap: butt}</style>
 </defs>
 <g id="figure_1">
  <g id="patch_1">
   <path d="M 0 432 
L 864 432 
L 864 0 
L 0 0 
z
" style="fill: #ffffff"/>
  </g>
  <g id="axes_1">
   <g id="patch_2">
    <path d="M 108 384.48 
L 777.6 384.48 
L 777.6 51.84 
L 108 51.84 
z
" style="fill: #ffffff"/>
   </g>
   <g id="patch_3">
    <path d="M 163.8 377.690113 
L 163.8 377.690113 
L 163.8 377.690113 
L 163.8 377.690113 
z
" clip-path="url(#pa09a129d4a)" style="fill: #72b6a1; stroke: #595959; stroke-linejoin: miter"/>
   </g>
   <g id="patch_4">
    <path d="M 163.8 377.690113 
L 163.8 377.690113 
L 163.8 377.690113 
L 163.8 377.690113 
z
" clip-path="url(#pa09a129d4a)" style="fill: #e99675; stroke: #595959; stroke-linejoin: miter"/>
   </g>
   <g id="matplotlib.axis_1">
    <g id="xtick_1">
     <g id="line2d_1">
      <defs>
       <path id="m40b0fa67db" d="M 0 0 
L 0 3.5 
" style="stroke: #000000; stroke-width: 0.8"/>
      </defs>
      <g>
       <use xlink:href="#m40b0fa67db" x="163.8" y="384.48" style="stroke: #000000; stroke-width: 0.8"/>
      </g>
     </g>
     <g id="text_1">
      <!-- 1 -->
      <g transform="translate(160.61875 399.078438) scale(0.1 -0.1)">
       <defs>
        <path id="DejaVuSans-31" d="M 794 531 
L 1825 531 
L 1825 4091 
L 703 3866 
L 703 4441 
L 1819 4666 
L 2450 4666 
L 2450 531 
L 3481 531 
L 3481 0 
L 794 0 
L 794 531 
z
" transform="scale(0.015625)"/>
       </defs>
       <use xlink:href="#DejaVuSans-31"/>
      </g>
     </g>
    </g>
    <g id="xtick_2">
     <g id="line2d_2">
      <g>
       <use xlink:href="#m40b0fa67db" x="275.4" y="384.48" style="stroke: #000000; stroke-width: 0.8"/>
      </g>
     </g>
     <g id="text_2">
      <!-- 3 -->
      <g transform="translate(272.21875 399.078438) scale(0.1 -0.1)">
       <defs>
        <path id="DejaVuSans-33" d="M 2597 2516 
Q 3050 2419 3304 2112 
Q 3559 1806 3559 1356 
Q 3559 666 3084 287 
Q 2609 -91 1734 -91 
Q 1441 -91 1130 -33 
Q 819 25 488 141 
L 488 750 
Q 750 597 1062 519 
Q 1375 441 1716 441 
Q 2309 441 2620 675 
Q 2931 909 2931 1356 
Q 2931 1769 2642 2001 
Q 2353 2234 1838 2234 
L 1294 2234 
L 1294 2753 
L 1863 2753 
Q 2328 2753 2575 2939 
Q 2822 3125 2822 3475 
Q 2822 3834 2567 4026 
Q 2313 4219 1838 4219 
Q 1578 4219 1281 4162 
Q 984 4106 628 3988 
L 628 4550 
Q 988 4650 1302 4700 
Q 1616 4750 1894 4750 
Q 2613 4750 3031 4423 
Q 3450 4097 3450 3541 
Q 3450 3153 3228 2886 
Q 3006 2619 2597 2516 
z
" transform="scale(0.015625)"/>
       </defs>
       <use xlink:href="#DejaVuSans-33"/>
      </g>
     </g>
    </g>
    <g id="xtick_3">
     <g id="line2d_3">
      <g>
       <use xlink:href="#m40b0fa67db" x="387" y="384.48" style="stroke: #000000; stroke-width: 0.8"/>
      </g>
     </g>
     <g id="text_3">
      <!-- 50 -->
      <g transform="translate(380.6375 399.078438) scale(0.1 -0.1)">
       <defs>
        <path id="DejaVuSans-35" d="M 691 4666 
L 3169 4666 
L 3169 4134 
L 1269 4134 
L 1269 2991 
Q 1406 3038 1543 3061 
Q 1681 3084 1819 3084 
Q 2600 3084 3056 2656 
Q 3513 2228 3513 1497 
Q 3513 744 3044 326 
Q 2575 -91 1722 -91 
Q 1428 -91 1123 -41 
Q 819 9 494 109 
L 494 744 
Q 775 591 1075 516 
Q 1375 441 1709 441 
Q 2250 441 2565 725 
Q 2881 1009 2881 1497 
Q 2881 1984 2565 2268 
Q 2250 2553 1709 2553 
Q 1456 2553 1204 2497 
Q 953 2441 691 2322 
L 691 4666 
z
" transform="scale(0.015625)"/>
        <path id="DejaVuSans-30" d="M 2034 4250 
Q 1547 4250 1301 3770 
Q 1056 3291 1056 2328 
Q 1056 1369 1301 889 
Q 1547 409 2034 409 
Q 2525 409 2770 889 
Q 3016 1369 3016 2328 
Q 3016 3291 2770 3770 
Q 2525 4250 2034 4250 
z
M 2034 4750 
Q 2819 4750 3233 4129 
Q 3647 3509 3647 2328 
Q 3647 1150 3233 529 
Q 2819 -91 2034 -91 
Q 1250 -91 836 529 
Q 422 1150 422 2328 
Q 422 3509 836 4129 
Q 1250 4750 2034 4750 
z
" transform="scale(0.015625)"/>
       </defs>
       <use xlink:href="#DejaVuSans-35"/>
       <use xlink:href="#DejaVuSans-30" x="63.623047"/>
      </g>
     </g>
    </g>
    <g id="xtick_4">
     <g id="line2d_4">
      <g>
       <use xlink:href="#m40b0fa67db" x="498.6" y="384.48" style="stroke: #000000; stroke-width: 0.8"/>
      </g>
     </g>
     <g id="text_4">
      <!-- 100 -->
      <g transform="translate(489.05625 399.078438) scale(0.1 -0.1)">
       <use xlink:href="#DejaVuSans-31"/>
       <use xlink:href="#DejaVuSans-30" x="63.623047"/>
       <use xlink:href="#DejaVuSans-30" x="127.246094"/>
      </g>
     </g>
    </g>
    <g id="xtick_5">
     <g id="line2d_5">
      <g>
       <use xlink:href="#m40b0fa67db" x="610.2" y="384.48" style="stroke: #000000; stroke-width: 0.8"/>
      </g>
     </g>
     <g id="text_5">
      <!-- 250 -->
      <g transform="translate(600.65625 399.078438) scale(0.1 -0.1)">
       <defs>
        <path id="DejaVuSans-32" d="M 1228 531 
L 3431 531 
L 3431 0 
L 469 0 
L 469 531 
Q 828 903 1448 1529 
Q 2069 2156 2228 2338 
Q 2531 2678 2651 2914 
Q 2772 3150 2772 3378 
Q 2772 3750 2511 3984 
Q 2250 4219 1831 4219 
Q 1534 4219 1204 4116 
Q 875 4013 500 3803 
L 500 4441 
Q 881 4594 1212 4672 
Q 1544 4750 1819 4750 
Q 2544 4750 2975 4387 
Q 3406 4025 3406 3419 
Q 3406 3131 3298 2873 
Q 3191 2616 2906 2266 
Q 2828 2175 2409 1742 
Q 1991 1309 1228 531 
z
" transform="scale(0.015625)"/>
       </defs>
       <use xlink:href="#DejaVuSans-32"/>
       <use xlink:href="#DejaVuSans-35" x="63.623047"/>
       <use xlink:href="#DejaVuSans-30" x="127.246094"/>
      </g>
     </g>
    </g>
    <g id="xtick_6">
     <g id="line2d_6">
      <g>
       <use xlink:href="#m40b0fa67db" x="721.8" y="384.48" style="stroke: #000000; stroke-width: 0.8"/>
      </g>
     </g>
     <g id="text_6">
      <!-- 500 -->
      <g transform="translate(712.25625 399.078438) scale(0.1 -0.1)">
       <use xlink:href="#DejaVuSans-35"/>
       <use xlink:href="#DejaVuSans-30" x="63.623047"/>
       <use xlink:href="#DejaVuSans-30" x="127.246094"/>
      </g>
     </g>
    </g>
    <g id="text_7">
     <!-- Number of Particles -->
     <g transform="translate(393.638281 412.756563) scale(0.1 -0.1)">
      <defs>
       <path id="DejaVuSans-4e" d="M 628 4666 
L 1478 4666 
L 3547 763 
L 3547 4666 
L 4159 4666 
L 4159 0 
L 3309 0 
L 1241 3903 
L 1241 0 
L 628 0 
L 628 4666 
z
" transform="scale(0.015625)"/>
       <path id="DejaVuSans-75" d="M 544 1381 
L 544 3500 
L 1119 3500 
L 1119 1403 
Q 1119 906 1312 657 
Q 1506 409 1894 409 
Q 2359 409 2629 706 
Q 2900 1003 2900 1516 
L 2900 3500 
L 3475 3500 
L 3475 0 
L 2900 0 
L 2900 538 
Q 2691 219 2414 64 
Q 2138 -91 1772 -91 
Q 1169 -91 856 284 
Q 544 659 544 1381 
z
M 1991 3584 
L 1991 3584 
z
" transform="scale(0.015625)"/>
       <path id="DejaVuSans-6d" d="M 3328 2828 
Q 3544 3216 3844 3400 
Q 4144 3584 4550 3584 
Q 5097 3584 5394 3201 
Q 5691 2819 5691 2113 
L 5691 0 
L 5113 0 
L 5113 2094 
Q 5113 2597 4934 2840 
Q 4756 3084 4391 3084 
Q 3944 3084 3684 2787 
Q 3425 2491 3425 1978 
L 3425 0 
L 2847 0 
L 2847 2094 
Q 2847 2600 2669 2842 
Q 2491 3084 2119 3084 
Q 1678 3084 1418 2786 
Q 1159 2488 1159 1978 
L 1159 0 
L 581 0 
L 581 3500 
L 1159 3500 
L 1159 2956 
Q 1356 3278 1631 3431 
Q 1906 3584 2284 3584 
Q 2666 3584 2933 3390 
Q 3200 3197 3328 2828 
z
" transform="scale(0.015625)"/>
       <path id="DejaVuSans-62" d="M 3116 1747 
Q 3116 2381 2855 2742 
Q 2594 3103 2138 3103 
Q 1681 3103 1420 2742 
Q 1159 2381 1159 1747 
Q 1159 1113 1420 752 
Q 1681 391 2138 391 
Q 2594 391 2855 752 
Q 3116 1113 3116 1747 
z
M 1159 2969 
Q 1341 3281 1617 3432 
Q 1894 3584 2278 3584 
Q 2916 3584 3314 3078 
Q 3713 2572 3713 1747 
Q 3713 922 3314 415 
Q 2916 -91 2278 -91 
Q 1894 -91 1617 61 
Q 1341 213 1159 525 
L 1159 0 
L 581 0 
L 581 4863 
L 1159 4863 
L 1159 2969 
z
" transform="scale(0.015625)"/>
       <path id="DejaVuSans-65" d="M 3597 1894 
L 3597 1613 
L 953 1613 
Q 991 1019 1311 708 
Q 1631 397 2203 397 
Q 2534 397 2845 478 
Q 3156 559 3463 722 
L 3463 178 
Q 3153 47 2828 -22 
Q 2503 -91 2169 -91 
Q 1331 -91 842 396 
Q 353 884 353 1716 
Q 353 2575 817 3079 
Q 1281 3584 2069 3584 
Q 2775 3584 3186 3129 
Q 3597 2675 3597 1894 
z
M 3022 2063 
Q 3016 2534 2758 2815 
Q 2500 3097 2075 3097 
Q 1594 3097 1305 2825 
Q 1016 2553 972 2059 
L 3022 2063 
z
" transform="scale(0.015625)"/>
       <path id="DejaVuSans-72" d="M 2631 2963 
Q 2534 3019 2420 3045 
Q 2306 3072 2169 3072 
Q 1681 3072 1420 2755 
Q 1159 2438 1159 1844 
L 1159 0 
L 581 0 
L 581 3500 
L 1159 3500 
L 1159 2956 
Q 1341 3275 1631 3429 
Q 1922 3584 2338 3584 
Q 2397 3584 2469 3576 
Q 2541 3569 2628 3553 
L 2631 2963 
z
" transform="scale(0.015625)"/>
       <path id="DejaVuSans-20" transform="scale(0.015625)"/>
       <path id="DejaVuSans-6f" d="M 1959 3097 
Q 1497 3097 1228 2736 
Q 959 2375 959 1747 
Q 959 1119 1226 758 
Q 1494 397 1959 397 
Q 2419 397 2687 759 
Q 2956 1122 2956 1747 
Q 2956 2369 2687 2733 
Q 2419 3097 1959 3097 
z
M 1959 3584 
Q 2709 3584 3137 3096 
Q 3566 2609 3566 1747 
Q 3566 888 3137 398 
Q 2709 -91 1959 -91 
Q 1206 -91 779 398 
Q 353 888 353 1747 
Q 353 2609 779 3096 
Q 1206 3584 1959 3584 
z
" transform="scale(0.015625)"/>
       <path id="DejaVuSans-66" d="M 2375 4863 
L 2375 4384 
L 1825 4384 
Q 1516 4384 1395 4259 
Q 1275 4134 1275 3809 
L 1275 3500 
L 2222 3500 
L 2222 3053 
L 1275 3053 
L 1275 0 
L 697 0 
L 697 3053 
L 147 3053 
L 147 3500 
L 697 3500 
L 697 3744 
Q 697 4328 969 4595 
Q 1241 4863 1831 4863 
L 2375 4863 
z
" transform="scale(0.015625)"/>
       <path id="DejaVuSans-50" d="M 1259 4147 
L 1259 2394 
L 2053 2394 
Q 2494 2394 2734 2622 
Q 2975 2850 2975 3272 
Q 2975 3691 2734 3919 
Q 2494 4147 2053 4147 
L 1259 4147 
z
M 628 4666 
L 2053 4666 
Q 2838 4666 3239 4311 
Q 3641 3956 3641 3272 
Q 3641 2581 3239 2228 
Q 2838 1875 2053 1875 
L 1259 1875 
L 1259 0 
L 628 0 
L 628 4666 
z
" transform="scale(0.015625)"/>
       <path id="DejaVuSans-61" d="M 2194 1759 
Q 1497 1759 1228 1600 
Q 959 1441 959 1056 
Q 959 750 1161 570 
Q 1363 391 1709 391 
Q 2188 391 2477 730 
Q 2766 1069 2766 1631 
L 2766 1759 
L 2194 1759 
z
M 3341 1997 
L 3341 0 
L 2766 0 
L 2766 531 
Q 2569 213 2275 61 
Q 1981 -91 1556 -91 
Q 1019 -91 701 211 
Q 384 513 384 1019 
Q 384 1609 779 1909 
Q 1175 2209 1959 2209 
L 2766 2209 
L 2766 2266 
Q 2766 2663 2505 2880 
Q 2244 3097 1772 3097 
Q 1472 3097 1187 3025 
Q 903 2953 641 2809 
L 641 3341 
Q 956 3463 1253 3523 
Q 1550 3584 1831 3584 
Q 2591 3584 2966 3190 
Q 3341 2797 3341 1997 
z
" transform="scale(0.015625)"/>
       <path id="DejaVuSans-74" d="M 1172 4494 
L 1172 3500 
L 2356 3500 
L 2356 3053 
L 1172 3053 
L 1172 1153 
Q 1172 725 1289 603 
Q 1406 481 1766 481 
L 2356 481 
L 2356 0 
L 1766 0 
Q 1100 0 847 248 
Q 594 497 594 1153 
L 594 3053 
L 172 3053 
L 172 3500 
L 594 3500 
L 594 4494 
L 1172 4494 
z
" transform="scale(0.015625)"/>
       <path id="DejaVuSans-69" d="M 603 3500 
L 1178 3500 
L 1178 0 
L 603 0 
L 603 3500 
z
M 603 4863 
L 1178 4863 
L 1178 4134 
L 603 4134 
L 603 4863 
z
" transform="scale(0.015625)"/>
       <path id="DejaVuSans-63" d="M 3122 3366 
L 3122 2828 
Q 2878 2963 2633 3030 
Q 2388 3097 2138 3097 
Q 1578 3097 1268 2742 
Q 959 2388 959 1747 
Q 959 1106 1268 751 
Q 1578 397 2138 397 
Q 2388 397 2633 464 
Q 2878 531 3122 666 
L 3122 134 
Q 2881 22 2623 -34 
Q 2366 -91 2075 -91 
Q 1284 -91 818 406 
Q 353 903 353 1747 
Q 353 2603 823 3093 
Q 1294 3584 2113 3584 
Q 2378 3584 2631 3529 
Q 2884 3475 3122 3366 
z
" transform="scale(0.015625)"/>
       <path id="DejaVuSans-6c" d="M 603 4863 
L 1178 4863 
L 1178 0 
L 603 0 
L 603 4863 
z
" transform="scale(0.015625)"/>
       <path id="DejaVuSans-73" d="M 2834 3397 
L 2834 2853 
Q 2591 2978 2328 3040 
Q 2066 3103 1784 3103 
Q 1356 3103 1142 2972 
Q 928 2841 928 2578 
Q 928 2378 1081 2264 
Q 1234 2150 1697 2047 
L 1894 2003 
Q 2506 1872 2764 1633 
Q 3022 1394 3022 966 
Q 3022 478 2636 193 
Q 2250 -91 1575 -91 
Q 1294 -91 989 -36 
Q 684 19 347 128 
L 347 722 
Q 666 556 975 473 
Q 1284 391 1588 391 
Q 1994 391 2212 530 
Q 2431 669 2431 922 
Q 2431 1156 2273 1281 
Q 2116 1406 1581 1522 
L 1381 1569 
Q 847 1681 609 1914 
Q 372 2147 372 2553 
Q 372 3047 722 3315 
Q 1072 3584 1716 3584 
Q 2034 3584 2315 3537 
Q 2597 3491 2834 3397 
z
" transform="scale(0.015625)"/>
      </defs>
      <use xlink:href="#DejaVuSans-4e"/>
      <use xlink:href="#DejaVuSans-75" x="74.804688"/>
      <use xlink:href="#DejaVuSans-6d" x="138.183594"/>
      <use xlink:href="#DejaVuSans-62" x="235.595703"/>
      <use xlink:href="#DejaVuSans-65" x="299.072266"/>
      <use xlink:href="#DejaVuSans-72" x="360.595703"/>
      <use xlink:href="#DejaVuSans-20" x="401.708984"/>
      <use xlink:href="#DejaVuSans-6f" x="433.496094"/>
      <use xlink:href="#DejaVuSans-66" x="494.677734"/>
      <use xlink:href="#DejaVuSans-20" x="529.882812"/>
      <use xlink:href="#DejaVuSans-50" x="561.669922"/>
      <use xlink:href="#DejaVuSans-61" x="617.472656"/>
      <use xlink:href="#DejaVuSans-72" x="678.751953"/>
      <use xlink:href="#DejaVuSans-74" x="719.865234"/>
      <use xlink:href="#DejaVuSans-69" x="759.074219"/>
      <use xlink:href="#DejaVuSans-63" x="786.857422"/>
      <use xlink:href="#DejaVuSans-6c" x="841.837891"/>
      <use xlink:href="#DejaVuSans-65" x="869.621094"/>
      <use xlink:href="#DejaVuSans-73" x="931.144531"/>
     </g>
    </g>
   </g>
   <g id="matplotlib.axis_2">
    <g id="ytick_1">
     <g id="line2d_7">
      <path d="M 108 377.690113 
L 777.6 377.690113 
" clip-path="url(#pa09a129d4a)" style="fill: none; stroke-dasharray: 2.96,1.28; stroke-dashoffset: 0; stroke: #b0b0b0; stroke-opacity: 0.5; stroke-width: 0.8"/>
     </g>
     <g id="line2d_8">
      <defs>
       <path id="m9f77e382db" d="M 0 0 
L -3.5 0 
" style="stroke: #000000; stroke-width: 0.8"/>
      </defs>
      <g>
       <use xlink:href="#m9f77e382db" x="108" y="377.690113" style="stroke: #000000; stroke-width: 0.8"/>
      </g>
     </g>
     <g id="text_8">
      <!-- 0 -->
      <g transform="translate(94.6375 381.489332) scale(0.1 -0.1)">
       <use xlink:href="#DejaVuSans-30"/>
      </g>
     </g>
    </g>
    <g id="ytick_2">
     <g id="line2d_9">
      <path d="M 108 313.013172 
L 777.6 313.013172 
" clip-path="url(#pa09a129d4a)" style="fill: none; stroke-dasharray: 2.96,1.28; stroke-dashoffset: 0; stroke: #b0b0b0; stroke-opacity: 0.5; stroke-width: 0.8"/>
     </g>
     <g id="line2d_10">
      <g>
       <use xlink:href="#m9f77e382db" x="108" y="313.013172" style="stroke: #000000; stroke-width: 0.8"/>
      </g>
     </g>
     <g id="text_9">
      <!-- 50 -->
      <g transform="translate(88.275 316.812391) scale(0.1 -0.1)">
       <use xlink:href="#DejaVuSans-35"/>
       <use xlink:href="#DejaVuSans-30" x="63.623047"/>
      </g>
     </g>
    </g>
    <g id="ytick_3">
     <g id="line2d_11">
      <path d="M 108 248.336231 
L 777.6 248.336231 
" clip-path="url(#pa09a129d4a)" style="fill: none; stroke-dasharray: 2.96,1.28; stroke-dashoffset: 0; stroke: #b0b0b0; stroke-opacity: 0.5; stroke-width: 0.8"/>
     </g>
     <g id="line2d_12">
      <g>
       <use xlink:href="#m9f77e382db" x="108" y="248.336231" style="stroke: #000000; stroke-width: 0.8"/>
      </g>
     </g>
     <g id="text_10">
      <!-- 100 -->
      <g transform="translate(81.9125 252.13545) scale(0.1 -0.1)">
       <use xlink:href="#DejaVuSans-31"/>
       <use xlink:href="#DejaVuSans-30" x="63.623047"/>
       <use xlink:href="#DejaVuSans-30" x="127.246094"/>
      </g>
     </g>
    </g>
    <g id="ytick_4">
     <g id="line2d_13">
      <path d="M 108 183.65929 
L 777.6 183.65929 
" clip-path="url(#pa09a129d4a)" style="fill: none; stroke-dasharray: 2.96,1.28; stroke-dashoffset: 0; stroke: #b0b0b0; stroke-opacity: 0.5; stroke-width: 0.8"/>
     </g>
     <g id="line2d_14">
      <g>
       <use xlink:href="#m9f77e382db" x="108" y="183.65929" style="stroke: #000000; stroke-width: 0.8"/>
      </g>
     </g>
     <g id="text_11">
      <!-- 150 -->
      <g transform="translate(81.9125 187.458509) scale(0.1 -0.1)">
       <use xlink:href="#DejaVuSans-31"/>
       <use xlink:href="#DejaVuSans-35" x="63.623047"/>
       <use xlink:href="#DejaVuSans-30" x="127.246094"/>
      </g>
     </g>
    </g>
    <g id="ytick_5">
     <g id="line2d_15">
      <path d="M 108 118.982349 
L 777.6 118.982349 
" clip-path="url(#pa09a129d4a)" style="fill: none; stroke-dasharray: 2.96,1.28; stroke-dashoffset: 0; stroke: #b0b0b0; stroke-opacity: 0.5; stroke-width: 0.8"/>
     </g>
     <g id="line2d_16">
      <g>
       <use xlink:href="#m9f77e382db" x="108" y="118.982349" style="stroke: #000000; stroke-width: 0.8"/>
      </g>
     </g>
     <g id="text_12">
      <!-- 200 -->
      <g transform="translate(81.9125 122.781567) scale(0.1 -0.1)">
       <use xlink:href="#DejaVuSans-32"/>
       <use xlink:href="#DejaVuSans-30" x="63.623047"/>
       <use xlink:href="#DejaVuSans-30" x="127.246094"/>
      </g>
     </g>
    </g>
    <g id="ytick_6">
     <g id="line2d_17">
      <path d="M 108 54.305407 
L 777.6 54.305407 
" clip-path="url(#pa09a129d4a)" style="fill: none; stroke-dasharray: 2.96,1.28; stroke-dashoffset: 0; stroke: #b0b0b0; stroke-opacity: 0.5; stroke-width: 0.8"/>
     </g>
     <g id="line2d_18">
      <g>
       <use xlink:href="#m9f77e382db" x="108" y="54.305407" style="stroke: #000000; stroke-width: 0.8"/>
      </g>
     </g>
     <g id="text_13">
      <!-- 250 -->
      <g transform="translate(81.9125 58.104626) scale(0.1 -0.1)">
       <use xlink:href="#DejaVuSans-32"/>
       <use xlink:href="#DejaVuSans-35" x="63.623047"/>
       <use xlink:href="#DejaVuSans-30" x="127.246094"/>
      </g>
     </g>
    </g>
    <g id="text_14">
     <!-- RMSE (cm) -->
     <g transform="translate(75.832812 245.392031) rotate(-90) scale(0.1 -0.1)">
      <defs>
       <path id="DejaVuSans-52" d="M 2841 2188 
Q 3044 2119 3236 1894 
Q 3428 1669 3622 1275 
L 4263 0 
L 3584 0 
L 2988 1197 
Q 2756 1666 2539 1819 
Q 2322 1972 1947 1972 
L 1259 1972 
L 1259 0 
L 628 0 
L 628 4666 
L 2053 4666 
Q 2853 4666 3247 4331 
Q 3641 3997 3641 3322 
Q 3641 2881 3436 2590 
Q 3231 2300 2841 2188 
z
M 1259 4147 
L 1259 2491 
L 2053 2491 
Q 2509 2491 2742 2702 
Q 2975 2913 2975 3322 
Q 2975 3731 2742 3939 
Q 2509 4147 2053 4147 
L 1259 4147 
z
" transform="scale(0.015625)"/>
       <path id="DejaVuSans-4d" d="M 628 4666 
L 1569 4666 
L 2759 1491 
L 3956 4666 
L 4897 4666 
L 4897 0 
L 4281 0 
L 4281 4097 
L 3078 897 
L 2444 897 
L 1241 4097 
L 1241 0 
L 628 0 
L 628 4666 
z
" transform="scale(0.015625)"/>
       <path id="DejaVuSans-53" d="M 3425 4513 
L 3425 3897 
Q 3066 4069 2747 4153 
Q 2428 4238 2131 4238 
Q 1616 4238 1336 4038 
Q 1056 3838 1056 3469 
Q 1056 3159 1242 3001 
Q 1428 2844 1947 2747 
L 2328 2669 
Q 3034 2534 3370 2195 
Q 3706 1856 3706 1288 
Q 3706 609 3251 259 
Q 2797 -91 1919 -91 
Q 1588 -91 1214 -16 
Q 841 59 441 206 
L 441 856 
Q 825 641 1194 531 
Q 1563 422 1919 422 
Q 2459 422 2753 634 
Q 3047 847 3047 1241 
Q 3047 1584 2836 1778 
Q 2625 1972 2144 2069 
L 1759 2144 
Q 1053 2284 737 2584 
Q 422 2884 422 3419 
Q 422 4038 858 4394 
Q 1294 4750 2059 4750 
Q 2388 4750 2728 4690 
Q 3069 4631 3425 4513 
z
" transform="scale(0.015625)"/>
       <path id="DejaVuSans-45" d="M 628 4666 
L 3578 4666 
L 3578 4134 
L 1259 4134 
L 1259 2753 
L 3481 2753 
L 3481 2222 
L 1259 2222 
L 1259 531 
L 3634 531 
L 3634 0 
L 628 0 
L 628 4666 
z
" transform="scale(0.015625)"/>
       <path id="DejaVuSans-28" d="M 1984 4856 
Q 1566 4138 1362 3434 
Q 1159 2731 1159 2009 
Q 1159 1288 1364 580 
Q 1569 -128 1984 -844 
L 1484 -844 
Q 1016 -109 783 600 
Q 550 1309 550 2009 
Q 550 2706 781 3412 
Q 1013 4119 1484 4856 
L 1984 4856 
z
" transform="scale(0.015625)"/>
       <path id="DejaVuSans-29" d="M 513 4856 
L 1013 4856 
Q 1481 4119 1714 3412 
Q 1947 2706 1947 2009 
Q 1947 1309 1714 600 
Q 1481 -109 1013 -844 
L 513 -844 
Q 928 -128 1133 580 
Q 1338 1288 1338 2009 
Q 1338 2731 1133 3434 
Q 928 4138 513 4856 
z
" transform="scale(0.015625)"/>
      </defs>
      <use xlink:href="#DejaVuSans-52"/>
      <use xlink:href="#DejaVuSans-4d" x="69.482422"/>
      <use xlink:href="#DejaVuSans-53" x="155.761719"/>
      <use xlink:href="#DejaVuSans-45" x="219.238281"/>
      <use xlink:href="#DejaVuSans-20" x="282.421875"/>
      <use xlink:href="#DejaVuSans-28" x="314.208984"/>
      <use xlink:href="#DejaVuSans-63" x="353.222656"/>
      <use xlink:href="#DejaVuSans-6d" x="408.203125"/>
      <use xlink:href="#DejaVuSans-29" x="505.615234"/>
     </g>
    </g>
   </g>
   <g id="patch_5">
    <path d="M 119.16 256.838582 
L 163.8 256.838582 
L 163.8 138.485601 
L 119.16 138.485601 
L 119.16 256.838582 
z
" clip-path="url(#pa09a129d4a)" style="fill: #72b6a1; stroke: #595959; stroke-linejoin: miter"/>
   </g>
   <g id="line2d_19">
    <path d="M 141.48 256.838582 
L 141.48 353.81894 
" clip-path="url(#pa09a129d4a)" style="fill: none; stroke: #595959"/>
   </g>
   <g id="line2d_20">
    <path d="M 141.48 138.485601 
L 141.48 138.112333 
" clip-path="url(#pa09a129d4a)" style="fill: none; stroke: #595959"/>
   </g>
   <g id="line2d_21">
    <path d="M 130.32 353.81894 
L 152.64 353.81894 
" clip-path="url(#pa09a129d4a)" style="fill: none; stroke: #595959; stroke-linecap: square"/>
   </g>
   <g id="line2d_22">
    <path d="M 130.32 138.112333 
L 152.64 138.112333 
" clip-path="url(#pa09a129d4a)" style="fill: none; stroke: #595959; stroke-linecap: square"/>
   </g>
   <g id="line2d_23"/>
   <g id="patch_6">
    <path d="M 230.76 214.719484 
L 275.4 214.719484 
L 275.4 177.141209 
L 230.76 177.141209 
L 230.76 214.719484 
z
" clip-path="url(#pa09a129d4a)" style="fill: #72b6a1; stroke: #595959; stroke-linejoin: miter"/>
   </g>
   <g id="line2d_24">
    <path d="M 253.08 214.719484 
L 253.08 267.390068 
" clip-path="url(#pa09a129d4a)" style="fill: none; stroke: #595959"/>
   </g>
   <g id="line2d_25">
    <path d="M 253.08 177.141209 
L 253.08 177.141209 
" clip-path="url(#pa09a129d4a)" style="fill: none; stroke: #595959"/>
   </g>
   <g id="line2d_26">
    <path d="M 241.92 267.390068 
L 264.24 267.390068 
" clip-path="url(#pa09a129d4a)" style="fill: none; stroke: #595959; stroke-linecap: square"/>
   </g>
   <g id="line2d_27">
    <path d="M 241.92 177.141209 
L 264.24 177.141209 
" clip-path="url(#pa09a129d4a)" style="fill: none; stroke: #595959; stroke-linecap: square"/>
   </g>
   <g id="line2d_28">
    <defs>
     <path id="m5472ca71bd" d="M 0 3 
C 0.795609 3 1.55874 2.683901 2.12132 2.12132 
C 2.683901 1.55874 3 0.795609 3 0 
C 3 -0.795609 2.683901 -1.55874 2.12132 -2.12132 
C 1.55874 -2.683901 0.795609 -3 0 -3 
C -0.795609 -3 -1.55874 -2.683901 -2.12132 -2.12132 
C -2.683901 -1.55874 -3 -0.795609 -3 0 
C -3 0.795609 -2.683901 1.55874 -2.12132 2.12132 
C -1.55874 2.683901 -0.795609 3 0 3 
z
" style="stroke: #595959"/>
    </defs>
    <g clip-path="url(#pa09a129d4a)">
     <use xlink:href="#m5472ca71bd" x="253.08" y="113.030889" style="fill-opacity: 0; stroke: #595959"/>
    </g>
   </g>
   <g id="patch_7">
    <path d="M 342.36 329.611112 
L 387 329.611112 
L 387 281.894702 
L 342.36 281.894702 
L 342.36 329.611112 
z
" clip-path="url(#pa09a129d4a)" style="fill: #72b6a1; stroke: #595959; stroke-linejoin: miter"/>
   </g>
   <g id="line2d_29">
    <path d="M 364.68 329.611112 
L 364.68 347.646251 
" clip-path="url(#pa09a129d4a)" style="fill: none; stroke: #595959"/>
   </g>
   <g id="line2d_30">
    <path d="M 364.68 281.894702 
L 364.68 215.357818 
" clip-path="url(#pa09a129d4a)" style="fill: none; stroke: #595959"/>
   </g>
   <g id="line2d_31">
    <path d="M 353.52 347.646251 
L 375.84 347.646251 
" clip-path="url(#pa09a129d4a)" style="fill: none; stroke: #595959; stroke-linecap: square"/>
   </g>
   <g id="line2d_32">
    <path d="M 353.52 215.357818 
L 375.84 215.357818 
" clip-path="url(#pa09a129d4a)" style="fill: none; stroke: #595959; stroke-linecap: square"/>
   </g>
   <g id="line2d_33"/>
   <g id="patch_8">
    <path d="M 453.96 365.826177 
L 498.6 365.826177 
L 498.6 311.830229 
L 453.96 311.830229 
L 453.96 365.826177 
z
" clip-path="url(#pa09a129d4a)" style="fill: #72b6a1; stroke: #595959; stroke-linejoin: miter"/>
   </g>
   <g id="line2d_34">
    <path d="M 476.28 365.826177 
L 476.28 366.2922 
" clip-path="url(#pa09a129d4a)" style="fill: none; stroke: #595959"/>
   </g>
   <g id="line2d_35">
    <path d="M 476.28 311.830229 
L 476.28 304.820214 
" clip-path="url(#pa09a129d4a)" style="fill: none; stroke: #595959"/>
   </g>
   <g id="line2d_36">
    <path d="M 465.12 366.2922 
L 487.44 366.2922 
" clip-path="url(#pa09a129d4a)" style="fill: none; stroke: #595959; stroke-linecap: square"/>
   </g>
   <g id="line2d_37">
    <path d="M 465.12 304.820214 
L 487.44 304.820214 
" clip-path="url(#pa09a129d4a)" style="fill: none; stroke: #595959; stroke-linecap: square"/>
   </g>
   <g id="line2d_38"/>
   <g id="patch_9">
    <path d="M 565.56 367.005589 
L 610.2 367.005589 
L 610.2 358.879416 
L 565.56 358.879416 
L 565.56 367.005589 
z
" clip-path="url(#pa09a129d4a)" style="fill: #72b6a1; stroke: #595959; stroke-linejoin: miter"/>
   </g>
   <g id="line2d_39">
    <path d="M 587.88 367.005589 
L 587.88 369.36 
" clip-path="url(#pa09a129d4a)" style="fill: none; stroke: #595959"/>
   </g>
   <g id="line2d_40">
    <path d="M 587.88 358.879416 
L 587.88 351.913534 
" clip-path="url(#pa09a129d4a)" style="fill: none; stroke: #595959"/>
   </g>
   <g id="line2d_41">
    <path d="M 576.72 369.36 
L 599.04 369.36 
" clip-path="url(#pa09a129d4a)" style="fill: none; stroke: #595959; stroke-linecap: square"/>
   </g>
   <g id="line2d_42">
    <path d="M 576.72 351.913534 
L 599.04 351.913534 
" clip-path="url(#pa09a129d4a)" style="fill: none; stroke: #595959; stroke-linecap: square"/>
   </g>
   <g id="line2d_43"/>
   <g id="patch_10">
    <path d="M 677.16 354.304408 
L 721.8 354.304408 
L 721.8 343.159765 
L 677.16 343.159765 
L 677.16 354.304408 
z
" clip-path="url(#pa09a129d4a)" style="fill: #72b6a1; stroke: #595959; stroke-linejoin: miter"/>
   </g>
   <g id="line2d_44">
    <path d="M 699.48 354.304408 
L 699.48 368.618793 
" clip-path="url(#pa09a129d4a)" style="fill: none; stroke: #595959"/>
   </g>
   <g id="line2d_45">
    <path d="M 699.48 343.159765 
L 699.48 343.159765 
" clip-path="url(#pa09a129d4a)" style="fill: none; stroke: #595959"/>
   </g>
   <g id="line2d_46">
    <path d="M 688.32 368.618793 
L 710.64 368.618793 
" clip-path="url(#pa09a129d4a)" style="fill: none; stroke: #595959; stroke-linecap: square"/>
   </g>
   <g id="line2d_47">
    <path d="M 688.32 343.159765 
L 710.64 343.159765 
" clip-path="url(#pa09a129d4a)" style="fill: none; stroke: #595959; stroke-linecap: square"/>
   </g>
   <g id="line2d_48">
    <g clip-path="url(#pa09a129d4a)">
     <use xlink:href="#m5472ca71bd" x="699.48" y="260.964715" style="fill-opacity: 0; stroke: #595959"/>
    </g>
   </g>
   <g id="patch_11">
    <path d="M 163.8 229.763298 
L 208.44 229.763298 
L 208.44 111.960421 
L 163.8 111.960421 
L 163.8 229.763298 
z
" clip-path="url(#pa09a129d4a)" style="fill: #e99675; stroke: #595959; stroke-linejoin: miter"/>
   </g>
   <g id="line2d_49">
    <path d="M 186.12 229.763298 
L 186.12 261.443227 
" clip-path="url(#pa09a129d4a)" style="fill: none; stroke: #595959"/>
   </g>
   <g id="line2d_50">
    <path d="M 186.12 111.960421 
L 186.12 66.96 
" clip-path="url(#pa09a129d4a)" style="fill: none; stroke: #595959"/>
   </g>
   <g id="line2d_51">
    <path d="M 174.96 261.443227 
L 197.28 261.443227 
" clip-path="url(#pa09a129d4a)" style="fill: none; stroke: #595959; stroke-linecap: square"/>
   </g>
   <g id="line2d_52">
    <path d="M 174.96 66.96 
L 197.28 66.96 
" clip-path="url(#pa09a129d4a)" style="fill: none; stroke: #595959; stroke-linecap: square"/>
   </g>
   <g id="line2d_53"/>
   <g id="patch_12">
    <path d="M 275.4 343.867563 
L 320.04 343.867563 
L 320.04 330.840673 
L 275.4 330.840673 
L 275.4 343.867563 
z
" clip-path="url(#pa09a129d4a)" style="fill: #e99675; stroke: #595959; stroke-linejoin: miter"/>
   </g>
   <g id="line2d_54">
    <path d="M 297.72 343.867563 
L 297.72 344.2057 
" clip-path="url(#pa09a129d4a)" style="fill: none; stroke: #595959"/>
   </g>
   <g id="line2d_55">
    <path d="M 297.72 330.840673 
L 297.72 330.840673 
" clip-path="url(#pa09a129d4a)" style="fill: none; stroke: #595959"/>
   </g>
   <g id="line2d_56">
    <path d="M 286.56 344.2057 
L 308.88 344.2057 
" clip-path="url(#pa09a129d4a)" style="fill: none; stroke: #595959; stroke-linecap: square"/>
   </g>
   <g id="line2d_57">
    <path d="M 286.56 330.840673 
L 308.88 330.840673 
" clip-path="url(#pa09a129d4a)" style="fill: none; stroke: #595959; stroke-linecap: square"/>
   </g>
   <g id="line2d_58">
    <g clip-path="url(#pa09a129d4a)">
     <use xlink:href="#m5472ca71bd" x="297.72" y="307.330958" style="fill-opacity: 0; stroke: #595959"/>
    </g>
   </g>
   <g id="patch_13">
    <path d="M 387 361.714669 
L 431.64 361.714669 
L 431.64 358.594074 
L 387 358.594074 
L 387 361.714669 
z
" clip-path="url(#pa09a129d4a)" style="fill: #e99675; stroke: #595959; stroke-linejoin: miter"/>
   </g>
   <g id="line2d_59">
    <path d="M 409.32 361.714669 
L 409.32 364.276982 
" clip-path="url(#pa09a129d4a)" style="fill: none; stroke: #595959"/>
   </g>
   <g id="line2d_60">
    <path d="M 409.32 358.594074 
L 409.32 356.992046 
" clip-path="url(#pa09a129d4a)" style="fill: none; stroke: #595959"/>
   </g>
   <g id="line2d_61">
    <path d="M 398.16 364.276982 
L 420.48 364.276982 
" clip-path="url(#pa09a129d4a)" style="fill: none; stroke: #595959; stroke-linecap: square"/>
   </g>
   <g id="line2d_62">
    <path d="M 398.16 356.992046 
L 420.48 356.992046 
" clip-path="url(#pa09a129d4a)" style="fill: none; stroke: #595959; stroke-linecap: square"/>
   </g>
   <g id="line2d_63"/>
   <g id="patch_14">
    <path d="M 498.6 359.022655 
L 543.24 359.022655 
L 543.24 357.466368 
L 498.6 357.466368 
L 498.6 359.022655 
z
" clip-path="url(#pa09a129d4a)" style="fill: #e99675; stroke: #595959; stroke-linejoin: miter"/>
   </g>
   <g id="line2d_64">
    <path d="M 520.92 359.022655 
L 520.92 360.286476 
" clip-path="url(#pa09a129d4a)" style="fill: none; stroke: #595959"/>
   </g>
   <g id="line2d_65">
    <path d="M 520.92 357.466368 
L 520.92 357.466368 
" clip-path="url(#pa09a129d4a)" style="fill: none; stroke: #595959"/>
   </g>
   <g id="line2d_66">
    <path d="M 509.76 360.286476 
L 532.08 360.286476 
" clip-path="url(#pa09a129d4a)" style="fill: none; stroke: #595959; stroke-linecap: square"/>
   </g>
   <g id="line2d_67">
    <path d="M 509.76 357.466368 
L 532.08 357.466368 
" clip-path="url(#pa09a129d4a)" style="fill: none; stroke: #595959; stroke-linecap: square"/>
   </g>
   <g id="line2d_68">
    <g clip-path="url(#pa09a129d4a)">
     <use xlink:href="#m5472ca71bd" x="520.92" y="353.945931" style="fill-opacity: 0; stroke: #595959"/>
    </g>
   </g>
   <g id="patch_15">
    <path d="M 610.2 359.11799 
L 654.84 359.11799 
L 654.84 356.429151 
L 610.2 356.429151 
L 610.2 359.11799 
z
" clip-path="url(#pa09a129d4a)" style="fill: #e99675; stroke: #595959; stroke-linejoin: miter"/>
   </g>
   <g id="line2d_69">
    <path d="M 632.52 359.11799 
L 632.52 361.107566 
" clip-path="url(#pa09a129d4a)" style="fill: none; stroke: #595959"/>
   </g>
   <g id="line2d_70">
    <path d="M 632.52 356.429151 
L 632.52 355.30454 
" clip-path="url(#pa09a129d4a)" style="fill: none; stroke: #595959"/>
   </g>
   <g id="line2d_71">
    <path d="M 621.36 361.107566 
L 643.68 361.107566 
" clip-path="url(#pa09a129d4a)" style="fill: none; stroke: #595959; stroke-linecap: square"/>
   </g>
   <g id="line2d_72">
    <path d="M 621.36 355.30454 
L 643.68 355.30454 
" clip-path="url(#pa09a129d4a)" style="fill: none; stroke: #595959; stroke-linecap: square"/>
   </g>
   <g id="line2d_73"/>
   <g id="patch_16">
    <path d="M 721.8 359.6253 
L 766.44 359.6253 
L 766.44 350.922667 
L 721.8 350.922667 
L 721.8 359.6253 
z
" clip-path="url(#pa09a129d4a)" style="fill: #e99675; stroke: #595959; stroke-linejoin: miter"/>
   </g>
   <g id="line2d_74">
    <path d="M 744.12 359.6253 
L 744.12 360.473152 
" clip-path="url(#pa09a129d4a)" style="fill: none; stroke: #595959"/>
   </g>
   <g id="line2d_75">
    <path d="M 744.12 350.922667 
L 744.12 348.660157 
" clip-path="url(#pa09a129d4a)" style="fill: none; stroke: #595959"/>
   </g>
   <g id="line2d_76">
    <path d="M 732.96 360.473152 
L 755.28 360.473152 
" clip-path="url(#pa09a129d4a)" style="fill: none; stroke: #595959; stroke-linecap: square"/>
   </g>
   <g id="line2d_77">
    <path d="M 732.96 348.660157 
L 755.28 348.660157 
" clip-path="url(#pa09a129d4a)" style="fill: none; stroke: #595959; stroke-linecap: square"/>
   </g>
   <g id="line2d_78"/>
   <g id="line2d_79">
    <path d="M 119.16 231.47528 
L 163.8 231.47528 
" clip-path="url(#pa09a129d4a)" style="fill: none; stroke: #595959"/>
   </g>
   <g id="line2d_80">
    <path d="M 230.76 200.643665 
L 275.4 200.643665 
" clip-path="url(#pa09a129d4a)" style="fill: none; stroke: #595959"/>
   </g>
   <g id="line2d_81">
    <path d="M 342.36 304.310786 
L 387 304.310786 
" clip-path="url(#pa09a129d4a)" style="fill: none; stroke: #595959"/>
   </g>
   <g id="line2d_82">
    <path d="M 453.96 363.275641 
L 498.6 363.275641 
" clip-path="url(#pa09a129d4a)" style="fill: none; stroke: #595959"/>
   </g>
   <g id="line2d_83">
    <path d="M 565.56 359.055758 
L 610.2 359.055758 
" clip-path="url(#pa09a129d4a)" style="fill: none; stroke: #595959"/>
   </g>
   <g id="line2d_84">
    <path d="M 677.16 351.539431 
L 721.8 351.539431 
" clip-path="url(#pa09a129d4a)" style="fill: none; stroke: #595959"/>
   </g>
   <g id="line2d_85">
    <path d="M 163.8 144.596651 
L 208.44 144.596651 
" clip-path="url(#pa09a129d4a)" style="fill: none; stroke: #595959"/>
   </g>
   <g id="line2d_86">
    <path d="M 275.4 341.834593 
L 320.04 341.834593 
" clip-path="url(#pa09a129d4a)" style="fill: none; stroke: #595959"/>
   </g>
   <g id="line2d_87">
    <path d="M 387 358.961882 
L 431.64 358.961882 
" clip-path="url(#pa09a129d4a)" style="fill: none; stroke: #595959"/>
   </g>
   <g id="line2d_88">
    <path d="M 498.6 358.01386 
L 543.24 358.01386 
" clip-path="url(#pa09a129d4a)" style="fill: none; stroke: #595959"/>
   </g>
   <g id="line2d_89">
    <path d="M 610.2 358.08921 
L 654.84 358.08921 
" clip-path="url(#pa09a129d4a)" style="fill: none; stroke: #595959"/>
   </g>
   <g id="line2d_90">
    <path d="M 721.8 356.732494 
L 766.44 356.732494 
" clip-path="url(#pa09a129d4a)" style="fill: none; stroke: #595959"/>
   </g>
   <g id="patch_17">
    <path d="M 108 384.48 
L 108 51.84 
" style="fill: none; stroke: #000000; stroke-width: 0.8; stroke-linejoin: miter; stroke-linecap: square"/>
   </g>
   <g id="patch_18">
    <path d="M 777.6 384.48 
L 777.6 51.84 
" style="fill: none; stroke: #000000; stroke-width: 0.8; stroke-linejoin: miter; stroke-linecap: square"/>
   </g>
   <g id="patch_19">
    <path d="M 108 384.48 
L 777.6 384.48 
" style="fill: none; stroke: #000000; stroke-width: 0.8; stroke-linejoin: miter; stroke-linecap: square"/>
   </g>
   <g id="patch_20">
    <path d="M 108 51.84 
L 777.6 51.84 
" style="fill: none; stroke: #000000; stroke-width: 0.8; stroke-linejoin: miter; stroke-linecap: square"/>
   </g>
   <g id="text_15">
    <!-- RMSE Distribution by Number of Particles and Algorithm - Random Wrong Inital Pose Test -->
    <g transform="translate(175.930313 45.84) scale(0.12 -0.12)">
     <defs>
      <path id="DejaVuSans-44" d="M 1259 4147 
L 1259 519 
L 2022 519 
Q 2988 519 3436 956 
Q 3884 1394 3884 2338 
Q 3884 3275 3436 3711 
Q 2988 4147 2022 4147 
L 1259 4147 
z
M 628 4666 
L 1925 4666 
Q 3281 4666 3915 4102 
Q 4550 3538 4550 2338 
Q 4550 1131 3912 565 
Q 3275 0 1925 0 
L 628 0 
L 628 4666 
z
" transform="scale(0.015625)"/>
      <path id="DejaVuSans-6e" d="M 3513 2113 
L 3513 0 
L 2938 0 
L 2938 2094 
Q 2938 2591 2744 2837 
Q 2550 3084 2163 3084 
Q 1697 3084 1428 2787 
Q 1159 2491 1159 1978 
L 1159 0 
L 581 0 
L 581 3500 
L 1159 3500 
L 1159 2956 
Q 1366 3272 1645 3428 
Q 1925 3584 2291 3584 
Q 2894 3584 3203 3211 
Q 3513 2838 3513 2113 
z
" transform="scale(0.015625)"/>
      <path id="DejaVuSans-79" d="M 2059 -325 
Q 1816 -950 1584 -1140 
Q 1353 -1331 966 -1331 
L 506 -1331 
L 506 -850 
L 844 -850 
Q 1081 -850 1212 -737 
Q 1344 -625 1503 -206 
L 1606 56 
L 191 3500 
L 800 3500 
L 1894 763 
L 2988 3500 
L 3597 3500 
L 2059 -325 
z
" transform="scale(0.015625)"/>
      <path id="DejaVuSans-64" d="M 2906 2969 
L 2906 4863 
L 3481 4863 
L 3481 0 
L 2906 0 
L 2906 525 
Q 2725 213 2448 61 
Q 2172 -91 1784 -91 
Q 1150 -91 751 415 
Q 353 922 353 1747 
Q 353 2572 751 3078 
Q 1150 3584 1784 3584 
Q 2172 3584 2448 3432 
Q 2725 3281 2906 2969 
z
M 947 1747 
Q 947 1113 1208 752 
Q 1469 391 1925 391 
Q 2381 391 2643 752 
Q 2906 1113 2906 1747 
Q 2906 2381 2643 2742 
Q 2381 3103 1925 3103 
Q 1469 3103 1208 2742 
Q 947 2381 947 1747 
z
" transform="scale(0.015625)"/>
      <path id="DejaVuSans-41" d="M 2188 4044 
L 1331 1722 
L 3047 1722 
L 2188 4044 
z
M 1831 4666 
L 2547 4666 
L 4325 0 
L 3669 0 
L 3244 1197 
L 1141 1197 
L 716 0 
L 50 0 
L 1831 4666 
z
" transform="scale(0.015625)"/>
      <path id="DejaVuSans-67" d="M 2906 1791 
Q 2906 2416 2648 2759 
Q 2391 3103 1925 3103 
Q 1463 3103 1205 2759 
Q 947 2416 947 1791 
Q 947 1169 1205 825 
Q 1463 481 1925 481 
Q 2391 481 2648 825 
Q 2906 1169 2906 1791 
z
M 3481 434 
Q 3481 -459 3084 -895 
Q 2688 -1331 1869 -1331 
Q 1566 -1331 1297 -1286 
Q 1028 -1241 775 -1147 
L 775 -588 
Q 1028 -725 1275 -790 
Q 1522 -856 1778 -856 
Q 2344 -856 2625 -561 
Q 2906 -266 2906 331 
L 2906 616 
Q 2728 306 2450 153 
Q 2172 0 1784 0 
Q 1141 0 747 490 
Q 353 981 353 1791 
Q 353 2603 747 3093 
Q 1141 3584 1784 3584 
Q 2172 3584 2450 3431 
Q 2728 3278 2906 2969 
L 2906 3500 
L 3481 3500 
L 3481 434 
z
" transform="scale(0.015625)"/>
      <path id="DejaVuSans-68" d="M 3513 2113 
L 3513 0 
L 2938 0 
L 2938 2094 
Q 2938 2591 2744 2837 
Q 2550 3084 2163 3084 
Q 1697 3084 1428 2787 
Q 1159 2491 1159 1978 
L 1159 0 
L 581 0 
L 581 4863 
L 1159 4863 
L 1159 2956 
Q 1366 3272 1645 3428 
Q 1925 3584 2291 3584 
Q 2894 3584 3203 3211 
Q 3513 2838 3513 2113 
z
" transform="scale(0.015625)"/>
      <path id="DejaVuSans-2d" d="M 313 2009 
L 1997 2009 
L 1997 1497 
L 313 1497 
L 313 2009 
z
" transform="scale(0.015625)"/>
      <path id="DejaVuSans-57" d="M 213 4666 
L 850 4666 
L 1831 722 
L 2809 4666 
L 3519 4666 
L 4500 722 
L 5478 4666 
L 6119 4666 
L 4947 0 
L 4153 0 
L 3169 4050 
L 2175 0 
L 1381 0 
L 213 4666 
z
" transform="scale(0.015625)"/>
      <path id="DejaVuSans-49" d="M 628 4666 
L 1259 4666 
L 1259 0 
L 628 0 
L 628 4666 
z
" transform="scale(0.015625)"/>
      <path id="DejaVuSans-54" d="M -19 4666 
L 3928 4666 
L 3928 4134 
L 2272 4134 
L 2272 0 
L 1638 0 
L 1638 4134 
L -19 4134 
L -19 4666 
z
" transform="scale(0.015625)"/>
     </defs>
     <use xlink:href="#DejaVuSans-52"/>
     <use xlink:href="#DejaVuSans-4d" x="69.482422"/>
     <use xlink:href="#DejaVuSans-53" x="155.761719"/>
     <use xlink:href="#DejaVuSans-45" x="219.238281"/>
     <use xlink:href="#DejaVuSans-20" x="282.421875"/>
     <use xlink:href="#DejaVuSans-44" x="314.208984"/>
     <use xlink:href="#DejaVuSans-69" x="391.210938"/>
     <use xlink:href="#DejaVuSans-73" x="418.994141"/>
     <use xlink:href="#DejaVuSans-74" x="471.09375"/>
     <use xlink:href="#DejaVuSans-72" x="510.302734"/>
     <use xlink:href="#DejaVuSans-69" x="551.416016"/>
     <use xlink:href="#DejaVuSans-62" x="579.199219"/>
     <use xlink:href="#DejaVuSans-75" x="642.675781"/>
     <use xlink:href="#DejaVuSans-74" x="706.054688"/>
     <use xlink:href="#DejaVuSans-69" x="745.263672"/>
     <use xlink:href="#DejaVuSans-6f" x="773.046875"/>
     <use xlink:href="#DejaVuSans-6e" x="834.228516"/>
     <use xlink:href="#DejaVuSans-20" x="897.607422"/>
     <use xlink:href="#DejaVuSans-62" x="929.394531"/>
     <use xlink:href="#DejaVuSans-79" x="992.871094"/>
     <use xlink:href="#DejaVuSans-20" x="1052.050781"/>
     <use xlink:href="#DejaVuSans-4e" x="1083.837891"/>
     <use xlink:href="#DejaVuSans-75" x="1158.642578"/>
     <use xlink:href="#DejaVuSans-6d" x="1222.021484"/>
     <use xlink:href="#DejaVuSans-62" x="1319.433594"/>
     <use xlink:href="#DejaVuSans-65" x="1382.910156"/>
     <use xlink:href="#DejaVuSans-72" x="1444.433594"/>
     <use xlink:href="#DejaVuSans-20" x="1485.546875"/>
     <use xlink:href="#DejaVuSans-6f" x="1517.333984"/>
     <use xlink:href="#DejaVuSans-66" x="1578.515625"/>
     <use xlink:href="#DejaVuSans-20" x="1613.720703"/>
     <use xlink:href="#DejaVuSans-50" x="1645.507812"/>
     <use xlink:href="#DejaVuSans-61" x="1701.310547"/>
     <use xlink:href="#DejaVuSans-72" x="1762.589844"/>
     <use xlink:href="#DejaVuSans-74" x="1803.703125"/>
     <use xlink:href="#DejaVuSans-69" x="1842.912109"/>
     <use xlink:href="#DejaVuSans-63" x="1870.695312"/>
     <use xlink:href="#DejaVuSans-6c" x="1925.675781"/>
     <use xlink:href="#DejaVuSans-65" x="1953.458984"/>
     <use xlink:href="#DejaVuSans-73" x="2014.982422"/>
     <use xlink:href="#DejaVuSans-20" x="2067.082031"/>
     <use xlink:href="#DejaVuSans-61" x="2098.869141"/>
     <use xlink:href="#DejaVuSans-6e" x="2160.148438"/>
     <use xlink:href="#DejaVuSans-64" x="2223.527344"/>
     <use xlink:href="#DejaVuSans-20" x="2287.003906"/>
     <use xlink:href="#DejaVuSans-41" x="2318.791016"/>
     <use xlink:href="#DejaVuSans-6c" x="2387.199219"/>
     <use xlink:href="#DejaVuSans-67" x="2414.982422"/>
     <use xlink:href="#DejaVuSans-6f" x="2478.458984"/>
     <use xlink:href="#DejaVuSans-72" x="2539.640625"/>
     <use xlink:href="#DejaVuSans-69" x="2580.753906"/>
     <use xlink:href="#DejaVuSans-74" x="2608.537109"/>
     <use xlink:href="#DejaVuSans-68" x="2647.746094"/>
     <use xlink:href="#DejaVuSans-6d" x="2711.125"/>
     <use xlink:href="#DejaVuSans-20" x="2808.537109"/>
     <use xlink:href="#DejaVuSans-2d" x="2840.324219"/>
     <use xlink:href="#DejaVuSans-20" x="2876.408203"/>
     <use xlink:href="#DejaVuSans-52" x="2908.195312"/>
     <use xlink:href="#DejaVuSans-61" x="2975.427734"/>
     <use xlink:href="#DejaVuSans-6e" x="3036.707031"/>
     <use xlink:href="#DejaVuSans-64" x="3100.085938"/>
     <use xlink:href="#DejaVuSans-6f" x="3163.5625"/>
     <use xlink:href="#DejaVuSans-6d" x="3224.744141"/>
     <use xlink:href="#DejaVuSans-20" x="3322.15625"/>
     <use xlink:href="#DejaVuSans-57" x="3353.943359"/>
     <use xlink:href="#DejaVuSans-72" x="3448.320312"/>
     <use xlink:href="#DejaVuSans-6f" x="3487.183594"/>
     <use xlink:href="#DejaVuSans-6e" x="3548.365234"/>
     <use xlink:href="#DejaVuSans-67" x="3611.744141"/>
     <use xlink:href="#DejaVuSans-20" x="3675.220703"/>
     <use xlink:href="#DejaVuSans-49" x="3707.007812"/>
     <use xlink:href="#DejaVuSans-6e" x="3736.5"/>
     <use xlink:href="#DejaVuSans-69" x="3799.878906"/>
     <use xlink:href="#DejaVuSans-74" x="3827.662109"/>
     <use xlink:href="#DejaVuSans-61" x="3866.871094"/>
     <use xlink:href="#DejaVuSans-6c" x="3928.150391"/>
     <use xlink:href="#DejaVuSans-20" x="3955.933594"/>
     <use xlink:href="#DejaVuSans-50" x="3987.720703"/>
     <use xlink:href="#DejaVuSans-6f" x="4044.398438"/>
     <use xlink:href="#DejaVuSans-73" x="4105.580078"/>
     <use xlink:href="#DejaVuSans-65" x="4157.679688"/>
     <use xlink:href="#DejaVuSans-20" x="4219.203125"/>
     <use xlink:href="#DejaVuSans-54" x="4250.990234"/>
     <use xlink:href="#DejaVuSans-65" x="4295.074219"/>
     <use xlink:href="#DejaVuSans-73" x="4356.597656"/>
     <use xlink:href="#DejaVuSans-74" x="4408.697266"/>
    </g>
   </g>
   <g id="legend_1">
    <g id="patch_21">
     <path d="M 700.7875 103.874375 
L 770.6 103.874375 
Q 772.6 103.874375 772.6 101.874375 
L 772.6 58.84 
Q 772.6 56.84 770.6 56.84 
L 700.7875 56.84 
Q 698.7875 56.84 698.7875 58.84 
L 698.7875 101.874375 
Q 698.7875 103.874375 700.7875 103.874375 
z
" style="fill: #ffffff; opacity: 0.8; stroke: #cccccc; stroke-linejoin: miter"/>
    </g>
    <g id="text_16">
     <!-- Algorithm -->
     <g transform="translate(711.207031 68.438437) scale(0.1 -0.1)">
      <use xlink:href="#DejaVuSans-41"/>
      <use xlink:href="#DejaVuSans-6c" x="68.408203"/>
      <use xlink:href="#DejaVuSans-67" x="96.191406"/>
      <use xlink:href="#DejaVuSans-6f" x="159.667969"/>
      <use xlink:href="#DejaVuSans-72" x="220.849609"/>
      <use xlink:href="#DejaVuSans-69" x="261.962891"/>
      <use xlink:href="#DejaVuSans-74" x="289.746094"/>
      <use xlink:href="#DejaVuSans-68" x="328.955078"/>
      <use xlink:href="#DejaVuSans-6d" x="392.333984"/>
     </g>
    </g>
    <g id="patch_22">
     <path d="M 702.7875 83.116562 
L 722.7875 83.116562 
L 722.7875 76.116562 
L 702.7875 76.116562 
z
" style="fill: #72b6a1; stroke: #595959; stroke-linejoin: miter"/>
    </g>
    <g id="text_17">
     <!-- AMCL -->
     <g transform="translate(730.7875 83.116562) scale(0.1 -0.1)">
      <defs>
       <path id="DejaVuSans-43" d="M 4122 4306 
L 4122 3641 
Q 3803 3938 3442 4084 
Q 3081 4231 2675 4231 
Q 1875 4231 1450 3742 
Q 1025 3253 1025 2328 
Q 1025 1406 1450 917 
Q 1875 428 2675 428 
Q 3081 428 3442 575 
Q 3803 722 4122 1019 
L 4122 359 
Q 3791 134 3420 21 
Q 3050 -91 2638 -91 
Q 1578 -91 968 557 
Q 359 1206 359 2328 
Q 359 3453 968 4101 
Q 1578 4750 2638 4750 
Q 3056 4750 3426 4639 
Q 3797 4528 4122 4306 
z
" transform="scale(0.015625)"/>
       <path id="DejaVuSans-4c" d="M 628 4666 
L 1259 4666 
L 1259 531 
L 3531 531 
L 3531 0 
L 628 0 
L 628 4666 
z
" transform="scale(0.015625)"/>
      </defs>
      <use xlink:href="#DejaVuSans-41"/>
      <use xlink:href="#DejaVuSans-4d" x="68.408203"/>
      <use xlink:href="#DejaVuSans-43" x="154.6875"/>
      <use xlink:href="#DejaVuSans-4c" x="224.511719"/>
     </g>
    </g>
    <g id="patch_23">
     <path d="M 702.7875 97.794688 
L 722.7875 97.794688 
L 722.7875 90.794688 
L 702.7875 90.794688 
z
" style="fill: #e99675; stroke: #595959; stroke-linejoin: miter"/>
    </g>
    <g id="text_18">
     <!-- optimal -->
     <g transform="translate(730.7875 97.794688) scale(0.1 -0.1)">
      <defs>
       <path id="DejaVuSans-70" d="M 1159 525 
L 1159 -1331 
L 581 -1331 
L 581 3500 
L 1159 3500 
L 1159 2969 
Q 1341 3281 1617 3432 
Q 1894 3584 2278 3584 
Q 2916 3584 3314 3078 
Q 3713 2572 3713 1747 
Q 3713 922 3314 415 
Q 2916 -91 2278 -91 
Q 1894 -91 1617 61 
Q 1341 213 1159 525 
z
M 3116 1747 
Q 3116 2381 2855 2742 
Q 2594 3103 2138 3103 
Q 1681 3103 1420 2742 
Q 1159 2381 1159 1747 
Q 1159 1113 1420 752 
Q 1681 391 2138 391 
Q 2594 391 2855 752 
Q 3116 1113 3116 1747 
z
" transform="scale(0.015625)"/>
      </defs>
      <use xlink:href="#DejaVuSans-6f"/>
      <use xlink:href="#DejaVuSans-70" x="61.181641"/>
      <use xlink:href="#DejaVuSans-74" x="124.658203"/>
      <use xlink:href="#DejaVuSans-69" x="163.867188"/>
      <use xlink:href="#DejaVuSans-6d" x="191.650391"/>
      <use xlink:href="#DejaVuSans-61" x="289.0625"/>
      <use xlink:href="#DejaVuSans-6c" x="350.341797"/>
     </g>
    </g>
   </g>
  </g>
 </g>
 <defs>
  <clipPath id="pa09a129d4a">
   <rect x="108" y="51.84" width="669.6" height="332.64"/>
  </clipPath>
 </defs>
</svg>
